
<svg xmlns="http://www.w3.org/2000/svg" version="1.1" xmlns:xlink="http://www.w3.org/1999/xlink" preserveAspectRatio="none" x="0px" y="0px" width="280px" height="272px" viewBox="0 0 280 272">
<defs/>

<g id="Layer_1">
<g transform="matrix( 1, 0, 0, 1, 0,0) ">
<g>
<g>
<path fill="#FFFFFF" stroke="none" d="
M 0 231.85
L 0 242.7 140.05 272 280 242.7 280 231.85 140.05 261.1 0 231.85
M 152.4 168
Q 149.55 165.15 145.55 165.15
L 135.45 165.15
Q 130.95 165.15 127.9 167.65 124.8 170.3 124.8 174.55
L 124.8 185.45
Q 124.8 188.65 127.55 190.4
L 140.8 199.3
Q 142.25 200.25 142.65 200.9 143.35 201.9 143.35 203.9
L 143.35 244.1
Q 143.35 245 142.75 245.6 142.05 246.2 141.2 246.2
L 138.8 246.2
Q 137.95 246.2 137.35 245.6 136.65 245 136.65 244.1
L 136.65 203.8 124.8 206.2 124.8 244.4
Q 124.8 248.8 127.9 251.95 131.05 255.05 135.45 255.05
L 144.55 255.05
Q 148.95 255.05 152.1 251.95 155.2 248.8 155.2 244.4
L 155.2 200.55
Q 155.2 197.45 154.65 196.35 154.15 195.35 151.65 193.65
L 137.6 184.35
Q 136.65 183.75 136.65 181.6
L 136.65 176.2
Q 136.65 175.3 137.35 174.65 137.95 174 138.8 174
L 141.2 174
Q 142.05 174 142.65 174.65 143.35 175.3 143.35 176.2
L 143.35 181.6 155.2 179.15 155.2 174.85
Q 155.2 170.85 152.4 168
M 116.65 167.95
Q 113.95 165.15 110 165.15
L 88.95 165.15 88.95 244.9 100.9 247.45 100.85 206.2 104 206.2 108.6 249.05 120.6 251.55 115.4 203.5
Q 119.4 200.75 119.4 196.1
L 119.4 174.55
Q 119.4 170.65 116.65 167.95
M 100.9 196.7
L 100.9 174 105.35 174
Q 106.25 174 106.9 174.65 107.5 175.25 107.5 176.1
L 107.5 194.5
Q 107.5 195.4 106.85 196 106.25 196.7 105.35 196.7
L 100.9 196.7
M 151.7 146.2
L 141.8 146.2 141.8 162.45 146.65 162.45 146.65 156.65 151.7 156.65 151.7 152.15 146.65 152.15 146.65 150.7 151.7 150.7 151.7 146.2
M 135.05 146.2
L 132.15 146.2
Q 130.95 146.2 129.65 147.3 128.05 148.5 128.05 150.35
L 128.05 158.3
Q 128.05 160.15 129.65 161.45 130.95 162.45 132.15 162.45
L 135.05 162.45
Q 136.25 162.45 137.55 161.45 139.15 160.15 139.15 158.3
L 139.15 150.35
Q 139.15 148.5 137.55 147.3 136.25 146.2 135.05 146.2
M 132.75 150.7
Q 132.75 150.2 133.2 150.2
L 133.95 150.2
Q 134.35 150.2 134.35 150.7
L 134.35 158
Q 134.35 158.45 133.95 158.45
L 133.2 158.45
Q 132.75 158.45 132.75 158
L 132.75 150.7
M 78.3 165.15
L 58.6 165.15 50.85 236.95 62.8 239.45 65.3 215.75 72.1 215.75 74.95 242 86.8 244.45 78.3 165.15
M 71.05 206.2
L 66.35 206.2 68.75 184.35 71.05 206.2
M 0 148.85
L 0 159.75 122.65 159.75 122.65 148.85 0 148.85
M 33 165.15
L 20.25 165.15 16.05 203.25 11.95 165.15 0 165.15 6.75 227.75 23.9 231.3 26.6 206.2 29.5 232.55 45.6 235.85 53.15 165.15 41.3 165.15 37.1 203.25 33 165.15
M 101.45 94.6
L 90.8 94.6 87.55 124.9 84.3 94.6 74.55 94.6 71.3 124.9 68 94.6 57.35 94.6 62.6 143.5 76.9 143.5 79.4 120.3 81.9 143.5 96.25 143.5 101.45 94.6
M 114.95 94.6
Q 111.05 94.6 108.35 97.35 105.55 100.15 105.55 104.05
L 105.55 134.05
Q 105.55 137.95 108.35 140.65 111.05 143.45 114.95 143.45
L 122.7 143.45
Q 126.6 143.5 129.3 140.75 132.05 137.95 132.05 134.05
L 132.05 104.15
Q 132.05 102.1 131.25 100.5
L 121.1 94.6 114.95 94.6
M 121.5 103.6
L 121.5 134.5
Q 121.5 135 121.2 135.25 120.9 135.6 120.45 135.6
L 117.25 135.6
Q 116.85 135.6 116.55 135.25 116.2 135 116.2 134.5
L 116.2 103.6
Q 116.2 102.55 117.25 102.55
L 120.45 102.55
Q 120.9 102.55 121.2 102.9 121.5 103.2 121.5 103.6
M 276.9 168.45
Q 273.6 165.15 268.15 165.15
L 261.8 165.15
Q 256.55 165.15 253.15 168.35 249.6 171.65 249.6 177.35
L 249.6 185.45
Q 249.6 188.65 252.35 190.4
L 265.55 199.3
Q 267.05 200.25 267.45 200.9 268.15 201.9 268.15 203.9
L 268.15 218.15
Q 268.15 219.4 267 219.95 266.45 220.25 264.35 220.65 262.65 220.95 262 220.45 261.45 219.95 261.45 218.55
L 261.45 203.8 249.6 206.2 249.6 221.45
Q 249.6 225.8 253 228.6 256.4 231.4 260.65 230.5
L 267.6 229.1
Q 272.7 228 275.95 225.5 280 222.4 280 217.85
L 280 200.55
Q 280 197.45 279.45 196.35 278.9 195.35 276.45 193.65
L 262.4 184.35
Q 261.5 183.85 261.5 181.6
L 261.45 176.25
Q 261.45 175.35 262.05 174.7 262.6 174 263.25 174
L 266.3 174
Q 267.05 174 267.6 174.65 268.15 175.15 268.15 176
L 268.15 181.6 280 179.15 280 175.85
Q 280 171.5 276.9 168.45
M 280 159.75
L 280 148.85 157.15 148.85 157.15 159.75 280 159.75
M 208.35 165.15
L 196.5 165.15 196.5 243.9 208.35 241.4 208.35 165.15
M 240.6 168.75
Q 237.05 165.15 232.05 165.15
L 213.75 165.15 213.75 240.25 225.7 237.75 225.7 206.2 232.05 206.2
Q 237.05 206.2 240.6 202.7 244.2 199.1 244.2 194.05
L 244.2 177.4
Q 244.2 172.35 240.6 168.75
M 225.7 196.7
L 225.7 174 230.15 174
Q 231.05 174 231.65 174.65 232.3 175.3 232.3 176.2
L 232.3 194.5
Q 232.3 195.4 231.65 196 231.05 196.7 230.15 196.7
L 225.7 196.7
M 191.05 165.15
L 179.15 165.15 179.15 196.7 172.55 196.7 172.55 165.15 160.6 165.15 160.6 251.35 172.55 248.9 172.55 206.2 179.15 206.2 179.15 247.5 191.05 245.05 191.05 165.15
M 164.05 113.65
L 164.05 104.15
Q 164 101 161.95 98.6 160.2 96.5 157.55 95.4
L 140.05 105.55 137.55 104.15 137.55 143.5 148.15 143.5 148.15 123.2 150.4 123.2 153.75 143.5 164.45 143.5 160.7 120.5
Q 164 117.75 164.05 113.65
M 153.4 103.6
L 153.4 114.2
Q 153.4 114.7 153.1 114.95 152.8 115.3 152.4 115.3
L 148.15 115.3 148.15 102.55 152.4 102.55
Q 153.4 102.55 153.4 103.6
M 178.55 80.5
L 178.55 10.55 160.25 0 119.8 0 101.5 10.55 101.5 80.5 140.05 102.8 178.55 80.5
M 173.95 13.25
L 173.95 77.8 140.05 97.45 106.1 77.8 106.1 13.25 121 4.7 159 4.7 173.95 13.25
M 162.5 35
L 162.5 27.7 147.4 27.7 147.4 23.15 154.55 17.05 154.55 9.3 125.45 9.3 125.45 17.05 132.6 23.15 132.6 27.7 117.5 27.7 117.5 35 129.5 41.9 132.6 41.9 132.6 71.45 124.4 66.65 124.4 50.2 110.7 42.35 110.7 75.15 140.05 92.1 169.3 75.15 169.3 42.35 155.7 50.2 155.7 66.65 147.4 71.45 147.4 41.9 150.5 41.9 162.5 35
M 219.95 97.35
Q 217.2 94.6 213.3 94.6
L 196.2 94.6 196.2 143.5 213.3 143.5
Q 217.2 143.5 219.95 140.75 222.75 137.95 222.75 134.05
L 222.75 104.05
Q 222.75 100.15 219.95 97.35
M 211.05 102.55
Q 212.15 102.55 212.15 103.6
L 212.15 134.5
Q 212.15 135.6 211.05 135.6
L 206.8 135.6 206.8 102.55 211.05 102.55
M 180.1 94.6
L 169.45 94.6 169.45 143.5 190.85 143.5 190.85 134.45 180.1 134.45 180.1 94.6 Z"/>
</g>
</g>
</g>
</g>
</svg>
