<?xml version="1.0" encoding="UTF-8" standalone="no"?>
<svg xmlns:xlink="http://www.w3.org/1999/xlink" height="208.8px" width="280.0px" viewBox="0 0 280 208.8" xmlns="http://www.w3.org/2000/svg">
  <g transform="matrix(1.0, 0.0, 0.0, 1.0, 0.0, 0.05)">
    <path d="M147.55 44.1 L147.55 75.25 156.25 70.2 156.25 52.85 170.75 44.55 170.75 79.2 139.75 97.0 108.65 79.2 108.65 44.55 123.15 52.85 123.15 70.2 131.85 75.25 131.85 44.1 128.6 44.1 115.85 36.75 115.85 29.05 131.85 29.05 131.85 24.3 124.3 17.85 124.3 9.7 155.1 9.7 155.1 17.85 147.55 24.3 147.55 29.05 163.55 29.05 163.55 36.75 150.8 44.1 147.55 44.1 M161.15 -0.05 L180.55 11.05 180.55 84.8 139.75 108.3 98.95 84.8 98.95 11.05 118.3 -0.05 161.15 -0.05 M175.65 81.95 L175.65 13.9 159.85 4.8 119.6 4.8 103.85 13.9 103.85 81.95 139.75 102.65 175.65 81.95 M171.3 92.9 L279.05 92.9 279.05 103.3 153.2 103.3 171.3 92.9 M267.1 138.95 Q271.25 142.2 280.0 143.9 L277.15 155.2 Q274.25 154.8 270.9 153.65 266.85 152.2 263.85 150.25 L263.85 167.4 252.35 169.85 252.35 145.15 255.45 145.15 249.2 138.95 246.5 138.95 240.25 145.15 243.35 145.15 243.35 154.1 Q243.35 160.6 238.35 166.65 234.2 171.6 227.05 175.9 L218.75 168.2 Q225.9 163.35 227.6 161.8 231.9 157.8 231.9 153.1 L231.9 151.2 Q225.8 156.7 218.05 160.85 L212.5 150.5 Q220.85 146.1 228.6 138.95 L216.6 138.95 216.6 108.55 279.0 108.55 279.0 138.95 267.1 138.95 M139.55 198.45 L279.05 169.55 279.05 179.7 139.55 208.75 0.05 179.7 0.05 169.55 139.55 198.45 M252.25 130.4 L268.0 130.4 268.0 126.85 267.9 126.8 252.25 126.8 252.25 130.4 M243.75 130.4 L243.75 126.8 228.25 126.8 228.25 130.4 243.75 130.4 M243.75 120.55 L243.75 117.0 228.25 117.0 228.25 120.55 243.75 120.55 M252.25 117.0 L252.25 120.55 268.0 120.55 267.9 117.0 252.25 117.0 M149.85 191.05 L149.85 138.95 145.3 138.95 145.3 127.55 149.85 127.55 149.85 108.55 162.95 108.55 162.95 127.55 171.35 127.55 171.35 108.55 184.4 108.55 184.4 127.55 192.85 127.55 192.85 108.55 205.9 108.55 205.9 127.55 214.15 127.55 214.15 138.95 205.9 138.95 205.9 157.85 171.35 164.95 171.35 138.95 162.95 138.95 162.95 175.05 211.25 164.95 211.25 178.35 149.85 191.05 M192.85 148.6 L192.85 138.95 184.4 138.95 184.4 150.45 192.85 148.6 M147.55 173.05 L147.2 182.4 Q146.75 186.95 145.4 189.4 144.35 191.3 141.9 192.35 139.8 193.3 138.6 193.0 L125.3 190.3 Q120.7 189.3 120.7 179.3 L120.7 174.05 Q117.3 178.65 112.15 182.3 108.1 185.0 104.3 186.45 L104.3 186.35 99.0 176.7 Q105.4 174.3 109.0 170.85 114.85 165.15 114.85 155.75 L114.85 124.35 126.4 124.35 126.4 155.75 130.55 155.75 130.55 120.1 110.65 120.1 110.65 164.25 99.0 164.25 99.15 108.55 135.45 108.55 139.75 111.0 142.2 109.6 142.25 164.25 132.35 164.25 132.35 175.55 132.45 179.4 Q132.8 181.2 134.35 181.55 136.25 181.85 136.7 179.0 L137.1 168.0 147.55 173.05 M54.05 158.6 L62.65 164.6 Q58.0 174.3 49.9 174.3 47.75 174.3 45.55 173.25 42.1 171.6 39.7 167.65 36.8 169.5 34.7 170.3 L31.75 163.25 31.75 170.8 20.15 168.4 20.15 164.2 11.65 164.2 11.65 166.65 0.0 164.25 0.05 132.45 8.5 132.45 8.5 108.55 20.15 108.55 20.15 114.7 28.7 114.7 28.7 126.3 20.15 126.3 20.15 132.45 31.75 132.45 31.75 158.8 Q33.95 157.8 35.85 155.95 34.9 148.8 34.05 129.85 L32.25 130.0 31.15 118.4 33.75 118.2 33.55 108.55 43.85 108.55 44.0 117.2 49.7 116.65 45.75 109.85 53.1 105.65 57.4 113.0 51.3 116.5 58.3 115.85 59.35 127.4 44.4 128.8 Q44.8 139.45 45.15 143.85 46.3 141.4 47.25 138.6 L58.2 142.1 Q55.9 149.7 51.55 156.1 50.0 158.5 47.75 160.9 48.9 164.0 50.05 164.0 51.95 164.0 54.05 158.6 M85.0 155.55 L85.0 148.75 76.5 148.75 76.5 154.2 82.3 150.85 85.0 155.55 M85.0 121.3 L76.5 121.3 76.5 126.8 82.3 123.45 85.0 128.1 85.0 121.3 M76.5 137.2 L85.0 137.2 85.0 131.7 79.2 135.0 76.5 130.4 76.5 137.2 M85.75 112.7 L96.65 112.7 96.65 176.95 Q96.65 181.1 95.2 182.35 93.65 183.65 89.1 182.6 L80.3 180.8 78.45 169.95 83.35 171.0 Q84.45 171.25 84.8 171.0 L85.0 169.9 85.0 159.15 79.2 162.5 76.5 157.8 Q76.1 173.55 72.2 180.25 L61.0 176.75 Q63.6 171.75 64.4 165.05 64.85 161.25 64.85 154.6 L64.85 148.75 60.65 148.75 60.65 137.2 64.85 137.2 64.85 112.7 73.35 112.7 76.25 105.65 87.5 108.5 85.75 112.7 M126.3 103.3 L0.05 103.3 0.05 92.9 108.2 92.9 126.3 103.3 M20.15 152.55 L20.15 144.05 11.65 144.05 11.65 152.55 20.15 152.55" fill="#ffffff" fill-rule="evenodd" stroke="none"/>
  </g>
</svg>
